<?xml version="1.0" encoding="utf-8"?>
<!-- Generator: Adobe Illustrator 16.0.0, SVG Export Plug-In . SVG Version: 6.00 Build 0)  -->
<!DOCTYPE svg PUBLIC "-//W3C//DTD SVG 1.1//EN" "http://www.w3.org/Graphics/SVG/1.1/DTD/svg11.dtd">
<svg version="1.1" id="Layer_1" xmlns="http://www.w3.org/2000/svg" xmlns:xlink="http://www.w3.org/1999/xlink" x="0px" y="0px"
	 width="841.89px" height="226px" viewBox="0 0 841.89 226" enable-background="new 0 0 841.89 226" xml:space="preserve">
<g>
	<path fill="#F04E23" d="M52.384,123.432c1.588-0.916,2.132-2.949,1.216-4.537c-0.917-1.588-2.949-2.133-4.538-1.217
		c-1.588,0.918-2.133,2.951-1.216,4.539C48.762,123.805,50.795,124.35,52.384,123.432z"/>
	<path fill="#F04E23" d="M38.769,146.361l16.731,28.98c3.61,6.262,11.731,8.58,18.154,4.865c6.356-3.672,8.54-11.793,4.863-18.152
		l-9.967-17.266l8.631-4.984c1.589-0.918,2.134-2.949,1.216-4.537l-4.32-7.482c0.516-0.1,3.902-0.766,63.634-12.482
		c7.384-0.4,11.808-8.477,8.079-14.934l-11.042-19.123l7.056-10.688c0.693-1.051,0.735-2.402,0.105-3.492l-6.645-11.51
		c-0.63-1.09-1.825-1.729-3.077-1.654l-12.782,0.766l-12.257-21.23c-1.775-3.076-4.956-4.938-8.507-4.982c-0.042,0-0.084,0-0.126,0
		c-3.431,0-6.546,1.707-8.392,4.594L46.725,88.338L18.51,104.627c-11.097,6.404-14.941,20.641-8.512,31.768
		C15.872,146.57,28.255,150.572,38.769,146.361z M72.764,165.379c1.835,3.174,0.749,7.234-2.435,9.074
		c-3.194,1.846-7.261,0.713-9.075-2.432l-16.611-28.775l11.508-6.645C75.376,169.904,72.455,164.846,72.764,165.379z
		 M65.228,139.033l-3.322-5.754l5.755-3.322l3.322,5.754L65.228,139.033z M130.537,60.656l4.592,7.955l-4.095,6.199l-7.914-13.707
		L130.537,60.656z M95.681,36.693c0.891-1.459,2.306-1.609,2.88-1.594c0.567,0.006,1.98,0.182,2.833,1.658l38.642,66.934
		c1.259,2.18-0.271,4.918-2.795,4.98c-0.453,0.012-0.662,0.094-1.822,0.309L94.543,38.182
		C95.401,37.078,95.511,36.971,95.681,36.693z M90.121,43.813l38.405,66.521l-57.96,11.367L52.942,91.178L90.121,43.813z
		 M15.752,133.072c-1.458-2.523-2.229-5.389-2.229-8.289c0-5.924,3.185-11.443,8.309-14.402l25.895-14.949l16.611,28.771
		l-25.895,14.951C30.51,143.732,20.332,141.006,15.752,133.072z"/>
	<path fill="#F04E23" d="M42.091,125.539c-0.917-1.59-2.95-2.135-4.538-1.217l-5.754,3.322c-1.585,0.916-3.622,0.369-4.538-1.217
		c-0.917-1.588-2.95-2.133-4.539-1.215c-1.588,0.918-2.133,2.949-1.216,4.537c2.734,4.738,8.833,6.408,13.615,3.648l5.754-3.322
		C42.464,129.158,43.009,127.127,42.091,125.539z"/>
	<path fill="#F04E23" d="M172.042,35.561L153.53,45.861c-1.603,0.893-2.18,2.916-1.288,4.52c0.89,1.602,2.912,2.182,4.519,1.287
		l18.512-10.301c1.604-0.893,2.18-2.916,1.288-4.52S173.645,34.668,172.042,35.561z"/>
	<path fill="#F04E23" d="M170.101,69.971l-12.836-3.439c-1.773-0.475-3.595,0.576-4.07,2.35s0.577,3.594,2.35,4.068l12.837,3.439
		c1.783,0.479,3.596-0.59,4.068-2.35C172.925,72.266,171.873,70.445,170.101,69.971z"/>
	<path fill="#F04E23" d="M137.844,23.49l-3.443,12.838c-0.475,1.773,0.576,3.592,2.349,4.068c1.772,0.475,3.594-0.574,4.07-2.348
		l3.442-12.838c0.475-1.773-0.577-3.594-2.349-4.07C140.141,20.666,138.319,21.719,137.844,23.49z"/>
</g>
<g>
	<path fill="#053D4E" d="M579.155,179.869c-1.386-0.938-2.078-2.746-2.078-5.422v-21.451c0-2.484,0.669-4.283,2.007-5.398
		c1.337-1.113,2.978-1.672,4.92-1.672c5.096,0.096,9.062,0.208,11.896,0.334l2.818,0.096v3.059H584.96
		c-2.708,0-4.061,1.401-4.061,4.203v8.313l15.718,0.239v2.914l-15.718,0.238v8.266c0,1.623,0.382,2.723,1.146,3.296
		c0.764,0.573,1.799,0.86,3.105,0.86h13.567v3.057c-6.052,0.318-10.877,0.479-14.476,0.479
		C582.236,181.279,580.541,180.81,579.155,179.869z"/>
	<path fill="#053D4E" d="M603.065,145.926h3.918l10.605,31.197l10.559-31.197h3.869l-12.039,35.162h-4.873L603.065,145.926z"/>
	<path fill="#053D4E" d="M638.203,179.869c-1.386-0.938-2.078-2.746-2.078-5.422v-21.451c0-2.484,0.669-4.283,2.007-5.398
		c1.337-1.113,2.978-1.672,4.92-1.672c5.096,0.096,9.062,0.208,11.896,0.334l2.818,0.096v3.059h-13.759
		c-2.708,0-4.061,1.401-4.061,4.203v8.313l15.718,0.239v2.914l-15.718,0.238v8.266c0,1.623,0.382,2.723,1.146,3.296
		c0.764,0.573,1.799,0.86,3.105,0.86h13.567v3.057c-6.052,0.318-10.877,0.479-14.476,0.479
		C641.284,181.279,639.589,180.81,638.203,179.869z"/>
	<path fill="#053D4E" d="M664.837,145.926h3.105l18.345,28.617v-28.617h3.774v35.162h-3.105l-18.345-28.617v28.617h-3.774V145.926z"
		/>
	<path fill="#053D4E" d="M704.776,149.365h-10.893v-3.439h25.511v3.439H708.55v31.723h-3.773V149.365z"/>
	<path fill="#053D4E" d="M728.496,180.061c-1.895-0.875-3.328-2.58-4.3-5.111c-0.972-2.532-1.457-6.299-1.457-11.299
		c0-4.969,0.502-8.75,1.505-11.347c1.004-2.595,2.461-4.354,4.372-5.278c1.91-0.924,4.474-1.386,7.691-1.386
		c3.312,0,5.924,0.454,7.835,1.361s3.344,2.659,4.3,5.255c0.955,2.597,1.433,6.395,1.433,11.395s-0.485,8.767-1.457,11.299
		c-0.972,2.531-2.405,4.236-4.3,5.111c-1.895,0.877-4.499,1.314-7.811,1.314C732.994,181.375,730.391,180.938,728.496,180.061z
		 M742.16,176.932c1.353-0.7,2.348-2.07,2.985-4.109c0.637-2.037,0.956-5.095,0.956-9.172c0-4.235-0.319-7.389-0.956-9.459
		c-0.638-2.07-1.633-3.447-2.985-4.133c-1.354-0.685-3.305-1.027-5.853-1.027c-2.421,0-4.316,0.343-5.686,1.027
		c-1.369,0.686-2.396,2.078-3.081,4.18c-0.686,2.103-1.027,5.24-1.027,9.412c0,4.108,0.303,7.174,0.908,9.196
		c0.604,2.022,1.584,3.385,2.938,4.085c1.354,0.701,3.336,1.051,5.948,1.051C738.855,177.982,740.806,177.633,742.16,176.932z"/>
	<path fill="#053D4E" d="M760.791,181.111c-2.214-0.174-3.91-0.373-5.088-0.597v-2.914c2.484,0.255,5.987,0.382,10.511,0.382
		c2.42,0,4.299-0.382,5.637-1.146c1.338-0.764,2.007-2.15,2.007-4.156v-2.389c0-3.313-1.752-4.969-5.255-4.969h-3.774
		c-3.026,0-5.327-0.66-6.903-1.982c-1.577-1.321-2.365-3.495-2.365-6.521v-2.006c0-3.217,0.86-5.55,2.58-7
		c1.72-1.448,4.268-2.173,7.644-2.173c1.434,0,3.161,0.104,5.184,0.311c2.022,0.208,3.671,0.438,4.945,0.692v2.867
		c-4.3-0.287-7.549-0.431-9.746-0.431c-2.357,0-4.109,0.423-5.256,1.267s-1.72,2.381-1.72,4.609v1.625
		c0,1.848,0.485,3.161,1.457,3.941s2.413,1.17,4.324,1.17h4.061c2.771,0,4.873,0.74,6.306,2.222c1.434,1.481,2.15,3.464,2.15,5.948
		v2.723c0,3.281-0.996,5.566-2.986,6.855c-1.99,1.29-4.705,1.936-8.146,1.936C764.859,181.375,763.004,181.287,760.791,181.111z"/>
</g>
<g>
	<path fill="#053D4E" d="M215.443,134.055h-26.624l16.444-78.046h21.273l2.349,8.353h0.783c3.132-3.306,6.634-5.677,10.506-7.113
		c3.871-1.436,7.678-2.153,11.42-2.153c3.044,0,5.589,0.457,7.635,1.37c2.043,0.914,3.675,2.154,4.894,3.72
		c1.217,1.566,2.088,3.438,2.61,5.612c0.522,2.176,0.783,4.482,0.783,6.917c0,1.219-0.087,3.046-0.261,5.481
		c-0.175,2.437-0.567,5.155-1.175,8.157c-0.609,3.002-1.48,6.091-2.61,9.266c-1.132,3.177-2.633,6.069-4.503,8.679
		c-1.872,2.61-4.221,4.743-7.047,6.395c-2.829,1.651-6.199,2.479-10.115,2.479c-2.176,0-4.287-0.261-6.33-0.783
		c-2.045-0.521-3.895-1.217-5.547-2.088c-1.654-0.869-3.112-1.893-4.372-3.067c-1.262-1.175-2.198-2.37-2.806-3.589h-0.783
		L215.443,134.055z M229.278,100.513c2.088,0,3.828-1.109,5.22-3.328c1.391-2.219,2.522-4.829,3.393-7.831
		c0.869-3.002,1.501-6.004,1.893-9.005c0.392-3.002,0.587-5.241,0.587-6.721c0-1.74-0.284-3.175-0.848-4.307
		c-0.567-1.13-1.589-1.697-3.067-1.697c-1.654,0-3.22,0.587-4.698,1.762c-1.48,1.174-2.567,2.198-3.263,3.067l-5.09,23.883
		c0.695,0.958,1.521,1.893,2.479,2.806C226.841,100.056,227.973,100.513,229.278,100.513z"/>
	<path fill="#053D4E" d="M281.612,56.009h21.273l1.958,9.788h0.914c2-3.132,4.568-5.785,7.7-7.961
		c3.132-2.174,7.264-3.263,12.398-3.263c0.347,0,0.891,0.022,1.631,0.065c0.738,0.045,1.566,0.176,2.48,0.392
		c0.914,0.218,1.87,0.522,2.871,0.914c0.999,0.392,1.978,0.936,2.937,1.631l-5.743,26.885h-14.226
		c-0.175-5.394-0.652-9.156-1.436-11.289c-0.783-2.131-2.045-3.197-3.785-3.197c-0.871,0-1.807,0.195-2.806,0.587
		c-1.001,0.392-2.023,1.24-3.067,2.545l-8.353,39.023h-26.625L281.612,56.009z"/>
	<path fill="#053D4E" d="M375.187,54.573c10.353,0,17.88,1.827,22.579,5.481c4.959,3.83,7.439,10.18,7.439,19.055
		c0,5.481-0.914,10.42-2.741,14.813c-1.827,4.395-4.395,8.026-7.7,10.897c-6.613,5.569-16.183,8.353-28.712,8.353
		c-10.702,0-18.359-2.043-22.97-6.134c-4.959-4.262-7.439-10.657-7.439-19.185c0-5.655,1.152-10.788,3.459-15.4
		c2.304-4.611,5.632-8.438,9.984-11.485C355.435,56.706,364.137,54.573,375.187,54.573z M366.313,104.298
		c2.174,0,4.066-1.217,5.677-3.654c1.609-2.435,2.892-5.417,3.85-8.94c0.956-3.524,1.674-7.178,2.153-10.963
		c0.477-3.785,0.718-7.068,0.718-9.854c0-2.435-0.241-4.285-0.718-5.547c-0.479-1.26-1.501-1.893-3.067-1.893
		c-2.35,0-4.372,1.262-6.069,3.785c-1.697,2.524-3.067,5.526-4.111,9.005c-1.044,3.481-1.807,7.048-2.284,10.702
		c-0.479,3.654-0.718,6.613-0.718,8.875C361.745,101.471,363.266,104.298,366.313,104.298z"/>
	<path fill="#053D4E" d="M429.74,134.055h-26.625l16.444-78.046h21.274l2.35,8.353h0.783c3.131-3.306,6.633-5.677,10.506-7.113
		c3.869-1.436,7.678-2.153,11.42-2.153c3.043,0,5.588,0.457,7.635,1.37c2.043,0.914,3.674,2.154,4.893,3.72
		c1.219,1.566,2.09,3.438,2.611,5.612c0.521,2.176,0.783,4.482,0.783,6.917c0,1.219-0.088,3.046-0.262,5.481
		c-0.176,2.437-0.566,5.155-1.174,8.157c-0.609,3.002-1.48,6.091-2.611,9.266c-1.131,3.177-2.633,6.069-4.502,8.679
		c-1.871,2.61-4.221,4.743-7.047,6.395c-2.828,1.651-6.199,2.479-10.115,2.479c-2.176,0-4.287-0.261-6.33-0.783
		c-2.045-0.521-3.895-1.217-5.547-2.088c-1.654-0.869-3.111-1.893-4.372-3.067c-1.263-1.175-2.198-2.37-2.806-3.589h-0.783
		L429.74,134.055z M443.574,100.513c2.088,0,3.828-1.109,5.221-3.328c1.391-2.219,2.523-4.829,3.393-7.831
		c0.869-3.002,1.502-6.004,1.893-9.005c0.393-3.002,0.588-5.241,0.588-6.721c0-1.74-0.283-3.175-0.848-4.307
		c-0.568-1.13-1.59-1.697-3.068-1.697c-1.652,0-3.219,0.587-4.697,1.762c-1.48,1.174-2.568,2.198-3.264,3.067l-5.09,23.883
		c0.695,0.958,1.521,1.893,2.48,2.806C441.137,100.056,442.27,100.513,443.574,100.513z"/>
	<path fill="#053D4E" d="M494.734,60.837c4.438-2.173,8.982-3.762,13.639-4.763c4.652-1,9.854-1.501,15.596-1.501
		c5.566,0,10.18,0.436,13.834,1.305c3.654,0.871,6.568,2.133,8.744,3.785c2.174,1.654,3.697,3.611,4.568,5.873
		c0.869,2.264,1.305,4.829,1.305,7.7c0,1.654-0.109,3.438-0.326,5.351c-0.219,1.915-0.457,3.524-0.719,4.829l-6.133,28.712H524.23
		l-2.35-8.353h-0.783c-2.785,3.046-6.025,5.373-9.723,6.982c-3.699,1.608-7.375,2.414-11.029,2.414
		c-2.088,0-4.133-0.306-6.133-0.913c-2.004-0.608-3.785-1.544-5.352-2.806c-1.566-1.26-2.828-2.872-3.785-4.829
		s-1.436-4.327-1.436-7.113c0-4.523,1.24-8.112,3.719-10.767c2.48-2.653,5.744-4.654,9.789-6.003
		c4.047-1.348,8.613-2.196,13.703-2.545c5.09-0.347,10.201-0.522,15.336-0.522c0.174-0.869,0.391-2.108,0.652-3.719
		c0.262-1.609,0.391-3.022,0.391-4.242c0-1.566-0.412-3.022-1.238-4.372c-0.828-1.348-2.545-2.023-5.156-2.023
		c-3.047,0-5.285,0.893-6.721,2.675c-1.436,1.785-2.371,3.938-2.807,6.46h-19.055L494.734,60.837z M524.752,83.808h-2.35
		c-2.525,0-4.678,0.326-6.461,0.979c-1.783,0.652-3.219,1.5-4.307,2.545c-1.088,1.044-1.893,2.218-2.414,3.523
		s-0.783,2.61-0.783,3.916c0,2.088,0.543,3.654,1.631,4.698c1.088,1.044,2.371,1.566,3.852,1.566c1.826,0,3.631-0.653,5.416-1.958
		c1.781-1.305,2.891-3.044,3.328-5.22L524.752,83.808z"/>
	<path fill="#053D4E" d="M610.625,56.009h21.145l-10.703,50.769c-0.783,3.916-2.088,7.525-3.914,10.833
		c-1.828,3.306-4.373,6.177-7.637,8.613c-3.262,2.436-7.354,4.352-12.268,5.744c-4.916,1.391-10.896,2.088-17.945,2.088
		c-1.305,0-2.871-0.023-4.697-0.066c-1.828-0.045-3.699-0.088-5.613-0.129c-1.914-0.045-3.742-0.111-5.48-0.197
		c-1.742-0.088-3.133-0.174-4.176-0.26l2.479-9.396c2.783,0.434,5.633,0.672,8.549,0.717c2.914,0.043,5.416,0.064,7.504,0.064
		c2.611,0,4.807-0.24,6.592-0.717c1.781-0.479,3.262-1.24,4.438-2.284c1.174-1.045,2.131-2.438,2.871-4.177
		c0.738-1.741,1.324-3.872,1.762-6.396l1.566-8.483h-0.914c-0.521,0.783-1.285,1.719-2.283,2.806
		c-1.002,1.089-2.285,2.133-3.852,3.132c-1.566,1.001-3.416,1.827-5.547,2.48c-2.133,0.652-4.547,0.979-7.242,0.979
		c-3.047,0-5.635-0.457-7.766-1.37c-2.133-0.914-3.85-2.174-5.156-3.785c-1.305-1.609-2.262-3.524-2.871-5.742
		c-0.609-2.219-0.912-4.633-0.912-7.244c0-1.129,0.084-2.871,0.26-5.22c0.174-2.349,0.588-5.002,1.24-7.961
		c0.652-2.957,1.609-5.981,2.871-9.07c1.26-3.087,2.957-5.894,5.09-8.418c2.131-2.522,4.785-4.611,7.961-6.265
		c3.176-1.652,7.025-2.479,11.551-2.479c1.391,0,2.914,0.13,4.568,0.392c1.65,0.261,3.262,0.74,4.828,1.436
		c1.566,0.697,2.957,1.696,4.176,3.001s2.174,3.002,2.873,5.09h0.781L610.625,56.009z M596.008,67.363
		c-2.088,0-3.828,1.109-5.219,3.328c-1.395,2.218-2.525,4.808-3.395,7.765c-0.871,2.959-1.5,5.896-1.893,8.81
		c-0.391,2.916-0.586,5.069-0.586,6.46c0,1.741,0.281,3.197,0.848,4.372c0.564,1.174,1.586,1.762,3.066,1.762
		c0.869,0,1.717-0.216,2.545-0.652c0.826-0.435,1.609-0.934,2.35-1.501c0.738-0.565,1.391-1.152,1.957-1.762
		c0.566-0.608,0.98-1.087,1.24-1.436l4.83-22.839c-0.697-0.956-1.502-1.913-2.416-2.871
		C598.424,67.842,597.314,67.363,596.008,67.363z"/>
	<path fill="#053D4E" d="M673.924,54.573c10.352,0,17.879,1.827,22.578,5.481c4.959,3.83,7.439,10.18,7.439,19.055
		c0,5.481-0.914,10.42-2.742,14.813c-1.826,4.395-4.395,8.026-7.699,10.897c-6.613,5.569-16.184,8.353-28.713,8.353
		c-10.701,0-18.359-2.043-22.971-6.134c-4.959-4.262-7.438-10.657-7.438-19.185c0-5.655,1.152-10.788,3.457-15.4
		c2.305-4.611,5.633-8.438,9.984-11.485C654.172,56.706,662.873,54.573,673.924,54.573z M665.049,104.298
		c2.174,0,4.066-1.217,5.676-3.654c1.609-2.435,2.893-5.417,3.852-8.94c0.955-3.524,1.674-7.178,2.152-10.963
		c0.479-3.785,0.719-7.068,0.719-9.854c0-2.435-0.24-4.285-0.719-5.547c-0.479-1.26-1.5-1.893-3.066-1.893
		c-2.35,0-4.373,1.262-6.068,3.785c-1.697,2.524-3.068,5.526-4.111,9.005c-1.045,3.481-1.807,7.048-2.285,10.702
		s-0.717,6.613-0.717,8.875C660.48,101.471,662.002,104.298,665.049,104.298z"/>
	<path fill="#053D4E" d="M756.535,56.009h26.625l-12.008,56.12H750.01l-2.35-8.353h-0.783c-2.264,2.698-5.33,4.939-9.201,6.721
		c-3.871,1.783-7.764,2.676-11.68,2.676c-5.221,0-9.311-1.325-12.268-3.98c-2.959-2.653-4.438-6.111-4.438-10.375
		c0-2.174,0.369-4.894,1.109-8.157c0.738-3.263,1.412-6.33,2.023-9.201l5.48-25.45h26.494l-6.525,30.54
		c-0.176,0.697-0.35,1.523-0.523,2.479c-0.174,0.958-0.348,1.893-0.521,2.806c-0.176,0.914-0.326,1.784-0.457,2.61
		c-0.131,0.828-0.195,1.501-0.195,2.023c0,1.305,0.281,2.414,0.848,3.328s1.588,1.371,3.068,1.371c1.566,0,3.043-0.522,4.438-1.566
		c1.391-1.044,2.479-2.043,3.262-3.002L756.535,56.009z"/>
</g>
</svg>
